<mxfile host="app.diagrams.net" agent="Mozilla/5.0 (Windows NT 10.0; Win64; x64) AppleWebKit/537.36 (KHTML, like Gecko) Chrome/131.0.0.0 Safari/537.36" version="25.0.3">
  <diagram id="prtHgNgQTEPvFCAcTncT" name="Page-1">
    <mxGraphModel dx="2153" dy="991" grid="1" gridSize="10" guides="1" tooltips="1" connect="1" arrows="1" fold="1" page="1" pageScale="1" pageWidth="827" pageHeight="1169" math="0" shadow="0">
      <root>
        <mxCell id="0" />
        <mxCell id="1" parent="0" />
        <mxCell id="gxJp9FXTbyMtPr3gL3fM-1" value="Swimlane View Request" style="swimlane;childLayout=stackLayout;resizeParent=1;resizeParentMax=0;startSize=20;html=1;movable=0;resizable=0;rotatable=0;deletable=0;editable=0;locked=1;connectable=0;" parent="1" vertex="1">
          <mxGeometry x="23" y="338" width="780" height="450" as="geometry" />
        </mxCell>
        <mxCell id="gxJp9FXTbyMtPr3gL3fM-17" value="" style="endArrow=classic;html=1;rounded=0;exitX=0.5;exitY=0.5;exitDx=0;exitDy=-15;exitPerimeter=0;entryX=1;entryY=0.5;entryDx=0;entryDy=0;entryPerimeter=0;movable=0;resizable=0;rotatable=0;deletable=0;editable=0;locked=1;connectable=0;" parent="gxJp9FXTbyMtPr3gL3fM-1" source="gxJp9FXTbyMtPr3gL3fM-15" target="gxJp9FXTbyMtPr3gL3fM-14" edge="1">
          <mxGeometry width="50" height="50" relative="1" as="geometry">
            <mxPoint x="570" y="434.2" as="sourcePoint" />
            <mxPoint x="633" y="385" as="targetPoint" />
            <Array as="points">
              <mxPoint x="673" y="66" />
            </Array>
          </mxGeometry>
        </mxCell>
        <mxCell id="uOVnrscMFdNHNXmDHXCg-2" value="" style="endArrow=classic;html=1;rounded=0;exitX=0.5;exitY=1;exitDx=0;exitDy=0;entryX=1;entryY=0.5;entryDx=0;entryDy=0;entryPerimeter=0;movable=0;resizable=0;rotatable=0;deletable=0;editable=0;locked=1;connectable=0;" edge="1" parent="gxJp9FXTbyMtPr3gL3fM-1" source="gxJp9FXTbyMtPr3gL3fM-11" target="uOVnrscMFdNHNXmDHXCg-1">
          <mxGeometry width="50" height="50" relative="1" as="geometry">
            <mxPoint x="446" y="191" as="sourcePoint" />
            <mxPoint x="572" y="191" as="targetPoint" />
            <Array as="points">
              <mxPoint x="466" y="206" />
            </Array>
          </mxGeometry>
        </mxCell>
        <mxCell id="gxJp9FXTbyMtPr3gL3fM-3" value="Doctor" style="swimlane;startSize=20;html=1;movable=0;resizable=0;rotatable=0;deletable=0;editable=0;locked=1;connectable=0;" parent="gxJp9FXTbyMtPr3gL3fM-1" vertex="1">
          <mxGeometry y="20" width="390" height="430" as="geometry" />
        </mxCell>
        <mxCell id="gxJp9FXTbyMtPr3gL3fM-8" value="" style="ellipse;html=1;shape=startState;fillColor=#000000;strokeColor=#ff0000;movable=0;resizable=0;rotatable=0;deletable=0;editable=0;locked=1;connectable=0;" parent="gxJp9FXTbyMtPr3gL3fM-3" vertex="1">
          <mxGeometry x="16" y="31" width="30" height="30" as="geometry" />
        </mxCell>
        <mxCell id="gxJp9FXTbyMtPr3gL3fM-14" value="Login" style="html=1;dashed=0;whiteSpace=wrap;shape=mxgraph.dfd.start;movable=0;resizable=0;rotatable=0;deletable=0;editable=0;locked=1;connectable=0;" parent="gxJp9FXTbyMtPr3gL3fM-3" vertex="1">
          <mxGeometry x="86" y="31" width="154" height="30" as="geometry" />
        </mxCell>
        <mxCell id="uOVnrscMFdNHNXmDHXCg-1" value="View Request" style="html=1;dashed=0;whiteSpace=wrap;shape=mxgraph.dfd.start;movable=0;resizable=0;rotatable=0;deletable=0;editable=0;locked=1;connectable=0;" vertex="1" parent="gxJp9FXTbyMtPr3gL3fM-3">
          <mxGeometry x="86" y="171" width="154" height="30" as="geometry" />
        </mxCell>
        <mxCell id="uOVnrscMFdNHNXmDHXCg-21" value="Check appointment" style="html=1;dashed=0;whiteSpace=wrap;shape=mxgraph.dfd.start;movable=0;resizable=0;rotatable=0;deletable=0;editable=0;locked=1;connectable=0;" vertex="1" parent="gxJp9FXTbyMtPr3gL3fM-3">
          <mxGeometry x="86" y="321" width="154" height="30" as="geometry" />
        </mxCell>
        <mxCell id="uOVnrscMFdNHNXmDHXCg-24" value="[Request available]" style="strokeWidth=1;shadow=0;dashed=0;align=center;html=1;shape=mxgraph.mockup.text.textBox;fontColor=#666666;align=left;fontSize=17;spacingLeft=4;spacingTop=-3;whiteSpace=wrap;strokeColor=none;mainText=;fillColor=none;movable=0;resizable=0;rotatable=0;deletable=0;editable=0;locked=1;connectable=0;" vertex="1" parent="gxJp9FXTbyMtPr3gL3fM-3">
          <mxGeometry x="226" y="291" width="154" height="40" as="geometry" />
        </mxCell>
        <mxCell id="uOVnrscMFdNHNXmDHXCg-10" value="[Valid user]" style="strokeWidth=1;shadow=0;dashed=0;align=center;html=1;shape=mxgraph.mockup.text.textBox;fontColor=#666666;align=left;fontSize=17;spacingLeft=4;spacingTop=-3;whiteSpace=wrap;strokeColor=none;mainText=;fillColor=none;movable=0;resizable=0;rotatable=0;deletable=0;editable=0;locked=1;connectable=0;" vertex="1" parent="gxJp9FXTbyMtPr3gL3fM-3">
          <mxGeometry x="255" y="151" width="116" height="40" as="geometry" />
        </mxCell>
        <mxCell id="gxJp9FXTbyMtPr3gL3fM-9" value="" style="edgeStyle=orthogonalEdgeStyle;html=1;verticalAlign=bottom;endArrow=open;endSize=8;strokeColor=#ff0000;rounded=0;entryX=0;entryY=0.5;entryDx=0;entryDy=0;entryPerimeter=0;movable=0;resizable=0;rotatable=0;deletable=0;editable=0;locked=1;connectable=0;" parent="gxJp9FXTbyMtPr3gL3fM-3" source="gxJp9FXTbyMtPr3gL3fM-8" edge="1" target="gxJp9FXTbyMtPr3gL3fM-14">
          <mxGeometry relative="1" as="geometry">
            <mxPoint x="87" y="52" as="targetPoint" />
          </mxGeometry>
        </mxCell>
        <mxCell id="gxJp9FXTbyMtPr3gL3fM-4" value="System" style="swimlane;startSize=20;html=1;movable=0;resizable=0;rotatable=0;deletable=0;editable=0;locked=1;connectable=0;" parent="gxJp9FXTbyMtPr3gL3fM-1" vertex="1">
          <mxGeometry x="390" y="20" width="390" height="430" as="geometry" />
        </mxCell>
        <mxCell id="gxJp9FXTbyMtPr3gL3fM-15" value="Alert &quot;Invalid user id or password&quot;" style="html=1;dashed=0;whiteSpace=wrap;shape=mxgraph.dfd.start;movable=0;resizable=0;rotatable=0;deletable=0;editable=0;locked=1;connectable=0;" parent="gxJp9FXTbyMtPr3gL3fM-4" vertex="1">
          <mxGeometry x="206" y="81" width="154" height="30" as="geometry" />
        </mxCell>
        <mxCell id="gxJp9FXTbyMtPr3gL3fM-11" value="" style="rhombus;whiteSpace=wrap;html=1;movable=0;resizable=0;rotatable=0;deletable=0;editable=0;locked=1;connectable=0;" parent="gxJp9FXTbyMtPr3gL3fM-4" vertex="1">
          <mxGeometry x="36" y="71" width="80" height="50" as="geometry" />
        </mxCell>
        <mxCell id="gxJp9FXTbyMtPr3gL3fM-16" value="" style="endArrow=classic;html=1;rounded=0;exitX=1;exitY=0.5;exitDx=0;exitDy=0;entryX=0;entryY=0.5;entryDx=0;entryDy=0;entryPerimeter=0;movable=0;resizable=0;rotatable=0;deletable=0;editable=0;locked=1;connectable=0;" parent="gxJp9FXTbyMtPr3gL3fM-4" source="gxJp9FXTbyMtPr3gL3fM-11" target="gxJp9FXTbyMtPr3gL3fM-15" edge="1">
          <mxGeometry width="50" height="50" relative="1" as="geometry">
            <mxPoint x="66" y="475" as="sourcePoint" />
            <mxPoint x="66" y="515" as="targetPoint" />
          </mxGeometry>
        </mxCell>
        <mxCell id="uOVnrscMFdNHNXmDHXCg-4" value="[Invalid user]" style="strokeWidth=1;shadow=0;dashed=0;align=center;html=1;shape=mxgraph.mockup.text.textBox;fontColor=#666666;align=left;fontSize=17;spacingLeft=4;spacingTop=-3;whiteSpace=wrap;strokeColor=none;mainText=;fillColor=none;movable=0;resizable=0;rotatable=0;deletable=0;editable=0;locked=1;connectable=0;" vertex="1" parent="gxJp9FXTbyMtPr3gL3fM-4">
          <mxGeometry x="106" y="51" width="116" height="40" as="geometry" />
        </mxCell>
        <mxCell id="uOVnrscMFdNHNXmDHXCg-13" value="Alert &quot;No Request available&quot;" style="html=1;dashed=0;whiteSpace=wrap;shape=mxgraph.dfd.start;movable=0;resizable=0;rotatable=0;deletable=0;editable=0;locked=1;connectable=0;" vertex="1" parent="gxJp9FXTbyMtPr3gL3fM-4">
          <mxGeometry x="206" y="221" width="154" height="30" as="geometry" />
        </mxCell>
        <mxCell id="uOVnrscMFdNHNXmDHXCg-14" value="" style="ellipse;html=1;shape=endState;fillColor=#000000;strokeColor=#ff0000;movable=0;resizable=0;rotatable=0;deletable=0;editable=0;locked=1;connectable=0;" vertex="1" parent="gxJp9FXTbyMtPr3gL3fM-4">
          <mxGeometry x="258" y="301" width="50" height="50" as="geometry" />
        </mxCell>
        <mxCell id="uOVnrscMFdNHNXmDHXCg-15" value="" style="endArrow=classic;html=1;rounded=0;exitX=0.5;exitY=0.5;exitDx=0;exitDy=15;exitPerimeter=0;entryX=0.5;entryY=0;entryDx=0;entryDy=0;movable=0;resizable=0;rotatable=0;deletable=0;editable=0;locked=1;connectable=0;" edge="1" parent="gxJp9FXTbyMtPr3gL3fM-4" source="uOVnrscMFdNHNXmDHXCg-13" target="uOVnrscMFdNHNXmDHXCg-14">
          <mxGeometry width="50" height="50" relative="1" as="geometry">
            <mxPoint x="282.5" y="261" as="sourcePoint" />
            <mxPoint x="282.5" y="291" as="targetPoint" />
          </mxGeometry>
        </mxCell>
        <mxCell id="uOVnrscMFdNHNXmDHXCg-17" value="" style="rhombus;whiteSpace=wrap;html=1;movable=0;resizable=0;rotatable=0;deletable=0;editable=0;locked=1;connectable=0;" vertex="1" parent="gxJp9FXTbyMtPr3gL3fM-4">
          <mxGeometry x="36" y="211" width="80" height="50" as="geometry" />
        </mxCell>
        <mxCell id="uOVnrscMFdNHNXmDHXCg-18" style="edgeStyle=orthogonalEdgeStyle;rounded=0;orthogonalLoop=1;jettySize=auto;html=1;exitX=1;exitY=0.5;exitDx=0;exitDy=0;entryX=0;entryY=0.5;entryDx=0;entryDy=0;entryPerimeter=0;movable=0;resizable=0;rotatable=0;deletable=0;editable=0;locked=1;connectable=0;" edge="1" parent="gxJp9FXTbyMtPr3gL3fM-4" source="uOVnrscMFdNHNXmDHXCg-17" target="uOVnrscMFdNHNXmDHXCg-13">
          <mxGeometry relative="1" as="geometry" />
        </mxCell>
        <mxCell id="uOVnrscMFdNHNXmDHXCg-23" value="[No request available]" style="strokeWidth=1;shadow=0;dashed=0;align=center;html=1;shape=mxgraph.mockup.text.textBox;fontColor=#666666;align=left;fontSize=17;spacingLeft=4;spacingTop=-3;whiteSpace=wrap;strokeColor=none;mainText=;fillColor=none;movable=0;resizable=0;rotatable=0;deletable=0;editable=0;locked=1;connectable=0;" vertex="1" parent="gxJp9FXTbyMtPr3gL3fM-4">
          <mxGeometry x="86" y="191" width="180" height="40" as="geometry" />
        </mxCell>
        <mxCell id="uOVnrscMFdNHNXmDHXCg-27" value="" style="ellipse;html=1;shape=endState;fillColor=#000000;strokeColor=#ff0000;movable=0;resizable=0;rotatable=0;deletable=0;editable=0;locked=1;connectable=0;" vertex="1" parent="gxJp9FXTbyMtPr3gL3fM-4">
          <mxGeometry x="258" y="365" width="50" height="50" as="geometry" />
        </mxCell>
        <mxCell id="uOVnrscMFdNHNXmDHXCg-12" value="" style="endArrow=classic;html=1;rounded=0;exitX=0.5;exitY=0.5;exitDx=0;exitDy=15;entryX=0;entryY=0.5;entryDx=0;entryDy=0;movable=0;resizable=0;rotatable=0;deletable=0;editable=0;locked=1;connectable=0;exitPerimeter=0;" edge="1" parent="gxJp9FXTbyMtPr3gL3fM-1" source="gxJp9FXTbyMtPr3gL3fM-14" target="gxJp9FXTbyMtPr3gL3fM-11">
          <mxGeometry width="50" height="50" relative="1" as="geometry">
            <mxPoint x="150" y="121" as="sourcePoint" />
            <mxPoint x="240" y="121" as="targetPoint" />
            <Array as="points">
              <mxPoint x="163" y="116" />
            </Array>
          </mxGeometry>
        </mxCell>
        <mxCell id="uOVnrscMFdNHNXmDHXCg-16" value="" style="endArrow=classic;html=1;rounded=0;exitX=0.5;exitY=0.5;exitDx=0;exitDy=15;movable=0;resizable=0;rotatable=0;deletable=0;editable=0;locked=1;connectable=0;exitPerimeter=0;entryX=0;entryY=0.5;entryDx=0;entryDy=0;" edge="1" parent="gxJp9FXTbyMtPr3gL3fM-1" source="uOVnrscMFdNHNXmDHXCg-1" target="uOVnrscMFdNHNXmDHXCg-17">
          <mxGeometry width="50" height="50" relative="1" as="geometry">
            <mxPoint x="166" y="221" as="sourcePoint" />
            <mxPoint x="416" y="256" as="targetPoint" />
            <Array as="points">
              <mxPoint x="163" y="256" />
            </Array>
          </mxGeometry>
        </mxCell>
        <mxCell id="uOVnrscMFdNHNXmDHXCg-22" value="" style="endArrow=classic;html=1;rounded=0;exitX=0.5;exitY=1;exitDx=0;exitDy=0;movable=0;resizable=0;rotatable=0;deletable=0;editable=0;locked=1;connectable=0;entryX=1;entryY=0.5;entryDx=0;entryDy=0;entryPerimeter=0;" edge="1" parent="gxJp9FXTbyMtPr3gL3fM-1" source="uOVnrscMFdNHNXmDHXCg-17" target="uOVnrscMFdNHNXmDHXCg-21">
          <mxGeometry width="50" height="50" relative="1" as="geometry">
            <mxPoint x="466" y="291" as="sourcePoint" />
            <mxPoint x="246" y="356" as="targetPoint" />
            <Array as="points">
              <mxPoint x="466" y="356" />
            </Array>
          </mxGeometry>
        </mxCell>
        <mxCell id="uOVnrscMFdNHNXmDHXCg-26" value="" style="endArrow=classic;html=1;rounded=0;exitX=0.5;exitY=0.5;exitDx=0;exitDy=15;movable=0;resizable=0;rotatable=0;deletable=0;editable=0;locked=1;connectable=0;exitPerimeter=0;entryX=0;entryY=0.5;entryDx=0;entryDy=0;" edge="1" parent="gxJp9FXTbyMtPr3gL3fM-1" source="uOVnrscMFdNHNXmDHXCg-21" target="uOVnrscMFdNHNXmDHXCg-27">
          <mxGeometry width="50" height="50" relative="1" as="geometry">
            <mxPoint x="163" y="370" as="sourcePoint" />
            <mxPoint x="426" y="411" as="targetPoint" />
            <Array as="points">
              <mxPoint x="163" y="410" />
            </Array>
          </mxGeometry>
        </mxCell>
      </root>
    </mxGraphModel>
  </diagram>
</mxfile>
